{
  "accessors": [
    {
      "bufferView": 2,
      "componentType": 5126,
      "count": 33,
      "max": [
        368.645263671875,
        368.645263671875,
        955.9528198242188
      ],
      "min": [
        -368.645263671875,
        -368.645263671875,
        882.27978515625
      ],
      "type": "VEC3"
    },
    {
      "bufferView": 2,
      "byteOffset": 396,
      "componentType": 5126,
      "count": 33,
      "max": [
        0.19597288966178894,
        0.19597288966178894,
        1.0
      ],
      "min": [
        -0.19597288966178894,
        -0.19597288966178894,
        0.9806092977523804
      ],
      "type": "VEC3"
    },
    {
      "bufferView": 3,
      "componentType": 5126,
      "count": 33,
      "max": [
        0.2923714816570282,
        -0.9379266500473022,
        0.19510501623153687,
        1.0
      ],
      "min": [
        0.28675249218940735,
        -0.9563048481941223,
        -0.19510506093502045,
        1.0
      ],
      "type": "VEC4"
    },
    {
      "bufferView": 1,
      "componentType": 5126,
      "count": 33,
      "max": [
        0.987268328666687,
        0.9828546047210693
      ],
      "min": [
        0.018032550811767578,
        0.013618946075439453
      ],
      "type": "VEC2"
    },
    {
      "bufferView": 0,
      "componentType": 5125,
      "count": 96,
      "type": "SCALAR"
    },
    {
      "bufferView": 2,
      "byteOffset": 792,
      "componentType": 5126,
      "count": 999,
      "max": [
        965.947998046875,
        965.947998046875,
        890.7371215820313
      ],
      "min": [
        -965.947998046875,
        -965.947998046875,
        7.285191531991586e-05
      ],
      "type": "VEC3"
    },
    {
      "bufferView": 2,
      "byteOffset": 12780,
      "componentType": 5126,
      "count": 999,
      "max": [
        0.999994695186615,
        0.9999946355819702,
        0.9883427619934082
      ],
      "min": [
        -0.9999946355819702,
        -0.9999946355819702,
        -0.9951848387718201
      ],
      "type": "VEC3"
    },
    {
      "bufferView": 1,
      "byteOffset": 264,
      "componentType": 5126,
      "count": 999,
      "max": [
        0.9954330921173096,
        0.9996656775474548
      ],
      "min": [
        0.0019999740179628134,
        0.0018510818481445313
      ],
      "type": "VEC2"
    },
    {
      "bufferView": 0,
      "byteOffset": 384,
      "componentType": 5125,
      "count": 2880,
      "type": "SCALAR"
    },
    {
      "bufferView": 2,
      "byteOffset": 24768,
      "componentType": 5126,
      "count": 15758,
      "max": [
        839.4143676757813,
        741.9398193359375,
        850.4668579101563
      ],
      "min": [
        -841.5204467773438,
        -741.9398193359375,
        -22.95208740234375
      ],
      "type": "VEC3"
    },
    {
      "bufferView": 2,
      "byteOffset": 213864,
      "componentType": 5126,
      "count": 15758,
      "max": [
        0.9999762773513794,
        0.9996815919876099,
        0.9718298316001892
      ],
      "min": [
        -0.9999762773513794,
        -0.9996798634529114,
        -0.9927330017089844
      ],
      "type": "VEC3"
    },
    {
      "bufferView": 1,
      "byteOffset": 8256,
      "componentType": 5126,
      "count": 15758,
      "max": [
        1.0277777910232544,
        1.001449465751648
      ],
      "min": [
        0.0,
        -0.182317852973938
      ],
      "type": "VEC2"
    },
    {
      "bufferView": 0,
      "byteOffset": 11904,
      "componentType": 5125,
      "count": 69564,
      "type": "SCALAR"
    },
    {
      "bufferView": 2,
      "byteOffset": 402960,
      "componentType": 5126,
      "count": 1238,
      "max": [
        800.8924560546875,
        741.99755859375,
        688.9317626953125
      ],
      "min": [
        -802.9984130859375,
        -741.99755859375,
        -38.6553955078125
      ],
      "type": "VEC3"
    },
    {
      "bufferView": 2,
      "byteOffset": 417816,
      "componentType": 5126,
      "count": 1238,
      "max": [
        0.9999461770057678,
        0.9999461770057678,
        0.982172966003418
      ],
      "min": [
        -0.9999461770057678,
        -0.9999461770057678,
        -0.8481480479240417
      ],
      "type": "VEC3"
    },
    {
      "bufferView": 1,
      "byteOffset": 134320,
      "componentType": 5126,
      "count": 1238,
      "max": [
        5.326840877532959,
        1.001449465751648
      ],
      "min": [
        0.0,
        -0.17799125611782074
      ],
      "type": "VEC2"
    },
    {
      "bufferView": 0,
      "byteOffset": 290160,
      "componentType": 5125,
      "count": 3624,
      "type": "SCALAR"
    },
    {
      "bufferView": 2,
      "byteOffset": 432672,
      "componentType": 5126,
      "count": 2252,
      "max": [
        946.4114379882813,
        946.4114379882813,
        866.3412475585938
      ],
      "min": [
        -946.4114379882813,
        -946.4114379882813,
        99.64141845703125
      ],
      "type": "VEC3"
    },
    {
      "bufferView": 2,
      "byteOffset": 459696,
      "componentType": 5126,
      "count": 2252,
      "max": [
        1.0,
        1.0,
        1.1249519538125696e-08
      ],
      "min": [
        -1.0,
        -1.0,
        -1.0
      ],
      "type": "VEC3"
    },
    {
      "bufferView": 1,
      "byteOffset": 144224,
      "componentType": 5126,
      "count": 2252,
      "max": [
        0.9807498455047607,
        0.9934598803520203
      ],
      "min": [
        0.043143704533576965,
        0.0483396053314209
      ],
      "type": "VEC2"
    },
    {
      "bufferView": 0,
      "byteOffset": 304656,
      "componentType": 5125,
      "count": 4752,
      "type": "SCALAR"
    }
  ],
  "asset": {
    "extras": {
      "author": "Anthony Yanez (https://sketchfab.com/paulyanez)",
      "license": "CC-BY-4.0 (http://creativecommons.org/licenses/by/4.0/)",
      "source": "https://sketchfab.com/3d-models/captain-america-shield-2d020e558b7b4923b0c33f9ce3354361",
      "title": "Captain America Shield"
    },
    "generator": "Sketchfab-12.66.0",
    "version": "2.0"
  },
  "bufferViews": [
    {
      "buffer": 0,
      "byteLength": 323664,
      "name": "floatBufferViews",
      "target": 34963
    },
    {
      "buffer": 0,
      "byteLength": 162240,
      "byteOffset": 323664,
      "byteStride": 8,
      "name": "floatBufferViews",
      "target": 34962
    },
    {
      "buffer": 0,
      "byteLength": 486720,
      "byteOffset": 485904,
      "byteStride": 12,
      "name": "floatBufferViews",
      "target": 34962
    },
    {
      "buffer": 0,
      "byteLength": 528,
      "byteOffset": 972624,
      "byteStride": 16,
      "name": "floatBufferViews",
      "target": 34962
    }
  ],
  "buffers": [
    {
      "byteLength": 973152,
      "uri": "scene.bin"
    }
  ],
  "images": [
    {
      "uri": "textures/07_-_Default_baseColor.png"
    },
    {
      "uri": "textures/07_-_Default_normal.png"
    },
    {
      "uri": "textures/08_-_Default_baseColor.jpeg"
    },
    {
      "uri": "textures/03_-_Default_baseColor.jpeg"
    },
    {
      "uri": "textures/02_-_Default_baseColor.jpeg"
    }
  ],
  "materials": [
    {
      "doubleSided": true,
      "name": "07_-_Default",
      "normalTexture": {
        "index": 1
      },
      "pbrMetallicRoughness": {
        "baseColorTexture": {
          "index": 0
        },
        "metallicFactor": 0.5870807927,
        "roughnessFactor": 0.40072408540000004
      }
    },
    {
      "doubleSided": true,
      "name": "08_-_Default",
      "pbrMetallicRoughness": {
        "baseColorTexture": {
          "index": 2
        },
        "metallicFactor": 0.6663490854,
        "roughnessFactor": 0.22999237800000005
      }
    },
    {
      "doubleSided": true,
      "name": "03_-_Default",
      "pbrMetallicRoughness": {
        "baseColorTexture": {
          "index": 3
        },
        "metallicFactor": 0.5078125,
        "roughnessFactor": 0.22999237800000005
      }
    },
    {
      "doubleSided": true,
      "name": "02_-_Default",
      "pbrMetallicRoughness": {
        "baseColorTexture": {
          "index": 4
        },
        "roughnessFactor": 0.2909679878
      }
    },
    {
      "doubleSided": true,
      "name": "14_-_Default",
      "pbrMetallicRoughness": {
        "baseColorFactor": [
          0.678431,
          0.678431,
          0.678431,
          1.0
        ],
        "metallicFactor": 0.4468368902,
        "roughnessFactor": 0.24828506100000003
      }
    }
  ],
  "meshes": [
    {
      "name": "Shield_07 - Default_0",
      "primitives": [
        {
          "attributes": {
            "NORMAL": 1,
            "POSITION": 0,
            "TANGENT": 2,
            "TEXCOORD_0": 3
          },
          "indices": 4,
          "material": 0,
          "mode": 4
        }
      ]
    },
    {
      "name": "Shield_08 - Default_0",
      "primitives": [
        {
          "attributes": {
            "NORMAL": 6,
            "POSITION": 5,
            "TEXCOORD_0": 7
          },
          "indices": 8,
          "material": 1,
          "mode": 4
        }
      ]
    },
    {
      "name": "Shield_03 - Default_0",
      "primitives": [
        {
          "attributes": {
            "NORMAL": 10,
            "POSITION": 9,
            "TEXCOORD_0": 11
          },
          "indices": 12,
          "material": 2,
          "mode": 4
        }
      ]
    },
    {
      "name": "Shield_02 - Default_0",
      "primitives": [
        {
          "attributes": {
            "NORMAL": 14,
            "POSITION": 13,
            "TEXCOORD_0": 15
          },
          "indices": 16,
          "material": 3,
          "mode": 4
        }
      ]
    },
    {
      "name": "Shield_14 - Default_0",
      "primitives": [
        {
          "attributes": {
            "NORMAL": 18,
            "POSITION": 17,
            "TEXCOORD_0": 19
          },
          "indices": 20,
          "material": 4,
          "mode": 4
        }
      ]
    }
  ],
  "nodes": [
    {
      "children": [
        1
      ],
      "matrix": [
        1.0,
        0.0,
        0.0,
        0.0,
        0.0,
        2.220446049250313e-16,
        -1.0,
        0.0,
        0.0,
        1.0,
        2.220446049250313e-16,
        0.0,
        0.0,
        0.0,
        0.0,
        1.0
      ],
      "name": "Sketchfab_model"
    },
    {
      "children": [
        2
      ],
      "matrix": [
        1.0,
        0.0,
        0.0,
        0.0,
        0.0,
        0.0,
        1.0,
        0.0,
        0.0,
        -1.0,
        0.0,
        0.0,
        0.0,
        0.0,
        0.0,
        1.0
      ],
      "name": "Captain_America_Shield.FBX"
    },
    {
      "children": [
        3
      ],
      "name": "RootNode"
    },
    {
      "children": [
        4
      ],
      "matrix": [
        0.9904176592826843,
        0.0,
        0.0,
        0.0,
        0.0,
        0.9904176592826711,
        1.6135952672867755e-07,
        0.0,
        0.0,
        -4.07013551811173e-08,
        0.2498231232166257,
        0.0,
        0.0,
        0.0,
        0.0,
        1.0
      ],
      "name": "Shield"
    },
    {
      "children": [
        5,
        6,
        7,
        8,
        9
      ],
      "matrix": [
        1.0,
        0.0,
        -0.0,
        0.0,
        0.0,
        1.0,
        0.0,
        0.0,
        0.0,
        0.0,
        1.0,
        0.0,
        14.3658447265625,
        -38.673240661621094,
        482.47637939453125,
        1.0
      ],
      "name": "Object_4"
    },
    {
      "mesh": 0,
      "name": "Shield_07 - Default_0"
    },
    {
      "mesh": 1,
      "name": "Shield_08 - Default_0"
    },
    {
      "mesh": 2,
      "name": "Shield_03 - Default_0"
    },
    {
      "mesh": 3,
      "name": "Shield_02 - Default_0"
    },
    {
      "mesh": 4,
      "name": "Shield_14 - Default_0"
    }
  ],
  "samplers": [
    {
      "magFilter": 9729,
      "minFilter": 9987,
      "wrapS": 10497,
      "wrapT": 10497
    }
  ],
  "scene": 0,
  "scenes": [
    {
      "name": "Sketchfab_Scene",
      "nodes": [
        0
      ]
    }
  ],
  "textures": [
    {
      "sampler": 0,
      "source": 0
    },
    {
      "sampler": 0,
      "source": 1
    },
    {
      "sampler": 0,
      "source": 2
    },
    {
      "sampler": 0,
      "source": 3
    },
    {
      "sampler": 0,
      "source": 4
    }
  ]
}
